<?xml version="1.0" encoding="UTF-8" standalone="no"?>
<!-- Generator: Adobe Illustrator 16.0.0, SVG Export Plug-In . SVG Version: 6.00 Build 0)  -->

<svg
   version="1.1"
   id="Layer_1"
   x="0px"
   y="0px"
   width="999.99994"
   height="256.64728"
   viewBox="0 0 999.99994 256.64728"
   enable-background="new 0 0 1000 266.223"
   xml:space="preserve"
   sodipodi:docname="Among_Us III.svg"
   inkscape:version="1.1.1 (3bf5ae0d25, 2021-09-20)"
   xmlns:inkscape="http://www.inkscape.org/namespaces/inkscape"
   xmlns:sodipodi="http://sodipodi.sourceforge.net/DTD/sodipodi-0.dtd"
   xmlns="http://www.w3.org/2000/svg"
   xmlns:svg="http://www.w3.org/2000/svg"><defs
   id="defs109">
	
	
	
	
	
	
	
	
	
	
	
	
	
	
	
	
	
	
	
	
	
	
	
	
	
	
	
	
	
	
	
	
	
	
	
	
	
	
	
	
	
	
	
	
	
	
	
	
	
	
	
</defs><sodipodi:namedview
   id="namedview107"
   pagecolor="#ffffff"
   bordercolor="#666666"
   borderopacity="1.0"
   inkscape:pageshadow="2"
   inkscape:pageopacity="0.0"
   inkscape:pagecheckerboard="0"
   showgrid="false"
   inkscape:zoom="0.5"
   inkscape:cx="479"
   inkscape:cy="141"
   inkscape:window-width="1366"
   inkscape:window-height="705"
   inkscape:window-x="-8"
   inkscape:window-y="-8"
   inkscape:window-maximized="1"
   inkscape:current-layer="Layer_1" />

<g
   id="g4170"
   style="display:inline;fill:#000000"
   transform="matrix(1.0124685,0,0,1.0124685,-8.0944319,-8.5174821)"><path
     fill="#ffffff"
     d="m 467.07142,44.504111 c -0.299,6.488016 -0.812,12.976033 -0.856,19.467049 -0.41401,58.38915 0.116,116.77929 0.927,175.16444 0.086,5.91401 0.888,11.83503 1.642,17.71804 0.317,2.43201 -0.35,3.57401 -2.699,3.93801 -2.04901,0.32 -4.07901,0.979 -6.13002,1.045 -4.45001,0.145 -6.37402,-1.845 -6.39402,-6.24701 -0.32,-74.79519 -0.622,-149.59538 -0.99,-224.391562 -0.02,-3.88201 0.298,-7.701019 1.164,-11.444029 1.32401,-5.712014 4.21601,-8.13902 9.52903,-8.434021 5.82801,-0.329001 8.33502,1.175003 10.49302,7.015018 6.44702,17.443043 11.67403,35.274088 16.48005,53.226133 11.97103,44.703111 20.66405,90.178221 31.96408,135.038341 0.924,3.65701 0.751,7.85602 3.636,10.74802 1.40801,-0.2 1.04201,-1.03 1.05601,-1.532 0.923,-34.72209 2.244,-69.46417 0.916,-104.18726 -0.91,-23.77806 -2.14101,-47.54212 -1.747,-71.348179 0.12,-7.223018 0.6,-14.446036 1.067,-21.656054 0.289,-4.402011 4.79401,-10.3170262 7.51002,-10.210026 2.612,0.1050003 6.20601,6.094015 5.80301,10.703027 -1.312,14.925037 -1.208,29.884075 -0.843,44.817112 0.817,33.599084 2.296,67.18817 1.763,100.81125 -0.41,25.71707 -1.347,51.41813 -2.904,77.08819 -0.279,4.61902 -1.62601,9.19503 -1.66801,13.80204 -0.04,4.68401 -3.01001,5.85901 -6.40201,6.17601 -3.68701,0.34501 -7.43502,-0.151 -8.73303,-4.77101 -3.008,-10.70002 -6.37701,-21.30705 -9.09002,-32.08608 C 500.8345,178.23245 491.84548,130.86433 479.62245,84.254211 476.40044,71.97118 473.50843,59.584149 469.14442,47.628119 c -0.404,-1.107003 -0.907,-2.177005 -1.359,-3.264008 -0.24,0.046 -0.477,0.091 -0.714,0.14"
     id="path6"
     style="fill:#000000;stroke-width:1" /><path
     fill="#ffffff"
     d="m 309.34502,52.17613 c -3.66901,4.432012 -2.835,9.024023 -3.55301,13.122033 -3.347,19.013048 -6.52401,38.054097 -9.45802,57.135147 -2.57101,16.73804 -4.80601,33.52308 -7.07302,50.30912 -2.27,16.79504 -4.54601,33.59909 -6.52501,50.43113 -1.24701,10.63502 -1.85501,21.35905 -4.23101,31.82208 -0.55101,2.447 0.266,6.34401 -4.61702,6.39401 -7.62701,0.074 -8.01902,0.101 -9.90002,-5.97201 -3.45901,-11.17003 -4.48201,-22.81406 -6.44102,-34.26809 -2.93,-17.14304 -5.23201,-34.39608 -8.01502,-51.56513 -2.699,-16.68804 -5.32201,-33.40108 -8.62502,-49.97012 -3.75701,-18.87105 -8.24602,-37.592095 -12.37603,-56.387142 -0.34,-1.537004 -0.628,-3.031008 -1.789,-4.231011 -2.84101,17.737045 -5.68402,35.384089 -8.48902,53.034133 -2.43501,15.29004 -4.81002,30.58508 -7.25302,45.87211 -3.11001,19.54105 -6.44402,39.0461 -9.31703,58.62315 -1.789,12.16003 -4.52701,24.17906 -5.24901,36.50509 -0.458,7.85202 -6.51802,10.92803 -13.70303,7.38702 -1.37901,-0.679 -1.34301,-1.169 -1.12501,-2.48601 3.23101,-19.52104 6.36102,-39.05909 9.51603,-58.59014 2.77,-17.16604 5.56901,-34.33109 8.30402,-51.50413 2.83401,-17.81304 5.68201,-35.62209 8.40002,-53.453134 2.44601,-16.10404 4.73801,-32.230081 7.07602,-48.354121 1.333,-9.170023 2.542,-18.355046 3.99801,-27.506069 0.295,-1.814004 1.215,-3.671009 2.287,-5.197013 2.58401,-3.6870089 5.84502,-3.5490086 8.48002,0.103001 5.41802,7.508018 7.50502,16.14004 8.22002,25.139062 1.46201,18.369046 6.14902,36.110091 10.38203,53.932135 5.45701,22.964059 9.52802,46.177119 13.03003,69.503179 2.46201,16.41204 5.17502,32.78808 7.82302,49.17412 0.173,1.066 0.725,2.075 1.57801,4.41801 1.805,-13.43703 3.40501,-25.55806 5.06901,-37.6651 2.33101,-16.93804 4.60101,-33.88708 7.10802,-50.79712 2.318,-15.62704 4.81301,-31.23208 7.39602,-46.816119 3.492,-21.082053 7.08501,-42.144106 10.79202,-63.187158 0.703,-3.98601 3.32901,-7.029018 7.05702,-8.5900216 1.699,-0.7080018 8.55402,6.9140176 9.01502,9.8590246 0.789,5.053013 1.38501,10.135025 2.08401,15.200038 2.161,15.672039 4.43701,31.327078 6.47001,47.016118 1.84701,14.278035 3.42101,28.596068 5.14302,42.890108 1.802,14.92804 3.68101,29.85007 5.45001,44.78611 1.453,12.23503 2.75801,24.49406 4.21401,36.72909 1.77201,14.93204 3.58401,29.85908 5.48801,44.77411 0.36501,2.85601 -0.089,5.80902 1.00701,8.58703 0.15,0.379 0.096,1.169 -0.147,1.325 -2.66401,1.72 -5.68402,1.988 -8.73302,1.769 -2.24501,-0.156 -3.81801,-1.197 -4.40602,-3.64301 -2.016,-8.41502 -2.885,-16.99704 -3.82101,-25.56506 -1.539,-14.00703 -3.062,-28.01107 -4.55301,-42.0231 -1.41,-13.21904 -2.705,-26.44207 -4.17401,-39.6541 -1.398,-12.56403 -2.931,-25.10807 -4.42501,-37.6631 -1.401,-11.75703 -2.81401,-23.514056 -4.23801,-35.267086 -1.007,-8.24402 -2.036,-16.476041 -3.15101,-25.485064"
     id="path2"
     style="fill:#000000;stroke-width:1" /><path
     fill="#ffffff"
     d="m 789.80822,49.876125 c 0.99501,24.745062 2.17501,49.913124 4.55402,75.035185 2.007,21.20506 4.32101,42.37311 7.18101,63.46316 1.89901,13.99604 3.95401,28.09107 10.31803,41.0421 1.629,3.31201 3.48801,6.46502 5.66801,9.43303 5.81902,7.93302 16.26904,9.53502 24.10206,3.50201 7.75102,-5.96502 11.42603,-14.56904 13.68404,-23.60506 4.02301,-16.12004 6.28001,-32.56408 8.01502,-49.09513 4.61001,-43.87811 4.24401,-87.928216 4.85201,-131.947326 0.083,-6.109015 0.52,-12.21303 0.836,-18.317046 0.273,-5.170012 3.06801,-8.12702 7.52202,-8.06102 3.91101,0.063 6.06602,2.641007 5.97402,8.170021 -0.337,19.613049 -0.56701,39.237098 -1.41201,58.833147 -0.723,16.872042 -0.336,33.754084 -1.267,50.631124 -1.028,18.75005 -2.53501,37.4141 -4.79901,56.05414 -1.90701,15.69104 -3.97001,31.29308 -9.77803,46.14612 -2.508,6.40801 -6.10401,12.18603 -9.51402,18.12804 -8.98302,15.65504 -30.93308,14.48304 -41.7361,5.82902 -10.69603,-8.57202 -15.56904,-20.35405 -19.35005,-32.87608 -4.26101,-14.12404 -6.08202,-28.67508 -7.76602,-43.26111 -1.77901,-15.42104 -3.91101,-30.80008 -5.50202,-46.23512 -1.317,-12.76903 -2.343,-25.57606 -3.014,-38.395094 -1.27201,-24.401061 -2.54901,-48.816122 -2.10501,-73.271183 0.027,-1.607004 -0.251,-3.296009 0.146,-4.810012 0.956,-3.664009 2.28001,-7.3800188 7.12802,-6.9350177 4.54301,0.4170011 6.10401,3.9280097 6.22901,7.7630197 0.25301,7.872019 0.047,15.761039 0.034,23.644059 -0.003,2.895007 0,5.786014 0,9.135023"
     id="path10"
     style="fill:#000000;stroke-width:1" /><path
     fill="#ffffff"
     d="m 895.14049,189.57547 v -16.87404 c 0,-0.319 -0.035,-0.657 0.039,-0.964 0.937,-3.72901 1.647,-7.83202 5.94901,-9.08302 2.28001,-0.657 6.44202,5.65201 6.57002,9.62502 0.356,10.93303 0.478,21.87606 1.001,32.79908 0.506,10.65703 3.14801,20.72305 8.99302,29.86608 6.07602,9.50702 15.12204,11.94903 25.43707,10.61102 24.39606,-3.169 37.91609,-26.42706 39.0551,-45.74711 1.151,-19.55505 -7.83202,-34.29009 -21.16106,-47.38212 -9.41502,-9.25502 -20.55805,-15.74604 -32.22508,-21.47205 -21.99405,-10.79903 -31.07708,-29.17608 -31.76108,-52.759135 -0.689,-23.861059 7.45502,-44.35311 23.14306,-62.106155 3.94601,-4.473011 8.69202,-6.7140166 14.68104,-6.8320169 12.39203,-0.2470006 24.71006,-0.4470011 35.65009,6.8540169 3.084,2.059005 5.98501,4.314011 8.60702,6.938018 2.151,2.149005 3.16801,4.658011 3.01101,7.754019 -0.16,3.191008 -1.67401,5.516014 -4.31502,6.996018 -2.562,1.432003 -4.81801,-0.139001 -6.50901,-1.756005 -6.06302,-5.802014 -12.89503,-9.852025 -21.38506,-10.904027 -5.96301,-0.738002 -11.84702,-0.501001 -17.70404,0.671002 -0.708,0.141 -1.42,0.702001 -1.945,1.250003 -16.97105,17.549044 -24.62407,43.281108 -17.23705,66.279165 3.00501,9.348027 8.98003,15.998037 17.38105,20.782057 11.66103,6.64201 23.50205,12.96603 34.01108,21.46205 21.14205,17.08204 32.89608,38.6741 31.06708,66.23816 -1.94701,29.30608 -20.66005,53.82314 -46.16212,58.46215 -22.53305,4.10201 -39.19209,-3.23501 -48.45112,-27.76107 -5.24901,-13.89803 -5.87901,-28.38007 -5.74001,-42.94711"
     id="path14"
     style="fill:#000000;stroke-width:1" /><path
     fill="#ffffff"
     d="m 554.95264,140.45535 c -0.331,-17.42104 -0.088,-36.88209 2.135,-56.217139 2.53601,-22.026055 8.38402,-42.894108 20.67605,-61.962155 10.04603,-15.5790393 29.95908,-15.1190381 41.91811,-10.072025 3.21301,1.353003 4.95301,4.04101 5.66501,7.285018 1.12901,5.139013 -2.488,8.842022 -7.60802,7.98102 -1.577,-0.267001 -3.146,-0.571002 -4.70601,-0.909003 -13.61003,-2.970007 -21.11605,0.313001 -28.34307,12.269031 -6.65901,11.015028 -8.95102,23.429059 -11.26703,35.756089 -5.99501,31.935084 -5.62601,64.162164 -4.19001,96.457244 0.702,15.86104 1.27501,31.70208 5.13702,47.18612 1.737,6.97101 4.51101,13.53803 8.54702,19.56904 2.133,3.18601 4.97401,4.94202 8.67002,5.14602 3.36301,0.184 6.77102,0.236 10.11802,-0.089 6.51602,-0.627 10.67303,-4.43601 13.31604,-10.29503 4.40801,-9.77702 5.45601,-20.25805 6.64801,-30.70708 1.58801,-13.93403 0.97501,-27.93907 1.09401,-41.9191 0.058,-6.85202 3.103,-9.73502 10.05102,-9.71102 8.20802,0.022 16.41504,-0.027 24.62406,0.063 5.92502,0.065 9.28203,2.277 9.49303,6.02101 0.234,4.10601 -3.96701,8.42002 -8.66002,9.45402 -6.07202,1.33601 -12.18403,0.72701 -18.27505,0.78001 -2.34601,0.024 -2.92601,0.727 -2.92601,3.015 -0.004,11.08103 0.4,22.16006 -0.838,33.23409 -1.462,13.05403 -3.67001,25.91806 -9.31002,37.86909 -5.90002,12.50803 -15.62104,20.58705 -29.84708,20.39905 -11.22303,-0.147 -20.53205,-5.11801 -26.54106,-15.38504 -8.40602,-14.36303 -11.88503,-30.05607 -13.61304,-46.34611 -2.007,-18.90405 -1.965,-37.8671 -1.968,-58.87215"
     id="path18"
     style="fill:#000000;stroke-width:1" /><path
     fill="#ffffff"
     d="M 435.25634,79.8812 C 433.26833,62.815157 428.83832,46.550116 421.6973,30.896077 417.05729,20.720052 409.50427,14.721037 399.08125,11.113028 384.97121,6.2310156 376.82719,11.97003 371.74618,23.644059 c -5.94702,13.652034 -9.07702,28.14407 -10.84003,42.871107 -2.396,19.96805 -1.962,40.093104 -2.92401,60.140154 -0.202,9.17802 0.56401,18.31904 0.78201,27.47707 0.522,22.14505 2.86,44.06011 7.94802,65.61416 2.44,10.33303 4.82601,20.91805 10.82802,29.85507 7.96002,11.84703 27.23307,19.51005 39.3621,-0.16 2.02901,-3.294 3.47901,-6.78501 4.76101,-10.39202 8.63103,-24.24606 12.74404,-49.42413 14.21604,-74.94019 1.618,-28.05107 2.65101,-56.16114 -0.623,-84.22821 m -12.76103,72.26618 c -1.76301,26.43007 -4.02601,52.86813 -12.31703,78.3212 -1.20601,3.70401 -2.77601,7.15801 -5.35202,10.03002 -5.09101,5.68002 -13.14603,4.96801 -16.91504,-1.668 -4.93801,-8.68402 -6.64402,-18.47805 -8.73702,-28.06607 -6.50802,-29.80208 -7.35402,-60.05115 -6.83502,-90.40423 0.764,-22.099054 0.625,-44.27211 4.87601,-66.114164 1.49101,-7.641019 3.55301,-15.131038 6.08502,-22.502057 1.328,-3.868009 3.26401,-6.707016 7.79802,-7.014017 5.09401,-0.341001 9.93602,0.400001 12.69903,5.050012 9.05102,15.210038 14.99204,31.515079 16.98304,49.240124 2.73201,24.338062 3.34501,48.749122 1.71501,73.127182"
     id="path22"
     style="fill:#000000;stroke-width:1" /><path
     fill="#ffffff"
     d="m 106.95852,56.13514 c -8.294026,-3.331008 -16.846048,-4.849012 -26.047071,-4.33601 -9.099022,-0.614002 -18.211045,1.416003 -27.330068,3.102007 -5.655014,1.052003 -9.752024,4.176011 -11.664029,10.050025 -3.175008,9.758025 -4.508011,19.79305 -6.085015,29.883075 -1.465004,9.326023 2.661006,14.555033 9.625024,18.921043 1.889004,1.18601 3.854009,2.29101 5.899014,3.16501 7.291019,3.11401 14.928038,4.47901 22.860058,4.38601 12.665031,-0.154 25.290063,-0.604 37.400097,-4.86201 5.61701,-1.979 9.42602,-5.82401 9.25002,-12.03303 -0.398,-14.425035 -2.139,-28.648071 -7.70502,-42.175104 -1.243,-3.025008 -3.161,-4.877013 -6.20301,-6.101016 m -1.35001,49.44412 c -4.73501,2.54301 -10.045024,2.97801 -15.226037,3.69301 -10.843027,1.49701 -21.677054,1.93301 -32.350081,-1.379 -9.401023,-2.91601 -12.08403,-6.66402 -11.472029,-16.921043 0.032,-6.183015 2.138006,-12.23903 4.674012,-18.354045 3.042008,-7.338019 9.554024,-8.108021 15.704039,-8.863023 8.266021,-1.015002 16.710042,-1.412003 24.999063,-0.2 6.527016,0.952002 11.680033,4.376011 13.322033,11.316028 1.86601,7.87802 3.66701,15.78204 5.18802,23.73306 0.679,3.576013 -2.08101,5.493013 -4.83902,6.975013"
     id="path26"
     style="fill:#000000;stroke-width:1" /><path
     fill="#ffffff"
     d="M 180.1777,139.60535 C 178.7767,119.1003 174.49269,99.190248 167.35567,79.9952 163.56566,69.801175 158.85965,59.498149 145.95461,58.001145 141.9506,57.539144 140.7186,55.368138 139.4686,52.201131 132.85758,35.510089 121.73955,23.365058 104.53451,16.914042 95.375485,13.476034 86.118462,10.816027 76.461438,9.4680237 66.076412,8.01402 57.17939,10.994027 49.734371,18.414046 43.075355,25.056063 38.304343,32.957082 34.207333,41.325103 18.667294,73.088183 12.659279,107.13727 10.068272,141.99536 8.6642688,160.9064 7.542266,179.83145 8.1762675,198.8135 c 0,8.68702 -0.3780009,17.39004 0.1030003,26.05106 0.4940012,8.81002 0.1540004,17.70005 1.7440042,26.41907 1.173003,6.41301 6.733017,10.81703 12.437031,9.78002 6.421016,-1.169 12.847032,-0.877 19.256048,-0.573 5.486014,0.259 10.930028,-0.072 16.393041,-0.231 3.594009,-0.101 5.861015,-0.856 6.245016,-5.64801 1.049003,-12.98504 0.796002,-25.98607 1.331003,-38.9721 0.446001,-10.77303 1.468004,-13.25403 14.514037,-15.17204 1.738004,-0.254 3.540008,-0.128 5.306013,-0.071 5.883014,0.197 9.458023,3.31001 10.555026,9.03202 2.703007,14.10404 2.754007,28.38107 2.915007,42.66011 0.067,5.70901 4.348016,9.89602 9.936026,9.07502 12.99503,-1.907 26.01807,-0.507 39.0221,-0.867 4.32801,-0.122 8.64302,0.049 12.97903,-0.768 2.70301,-0.511 3.46901,-1.479 3.16801,-4.04801 -2.54601,-21.86906 -2.19401,-43.93011 -4.30001,-65.82717 -0.305,-3.184 0.51,-5.15401 3.71301,-6.64801 9.83302,-4.57701 15.45704,-12.20603 16.82004,-23.25706 0.835,-6.80002 0.322,-13.40803 -0.136,-20.14305 m -33.51408,107.23627 c -10.61903,-0.124 -21.24406,-0.113 -31.86608,-0.003 -2.43401,0.027 -3.33101,-0.566 -3.37601,-3.18101 -0.161,-9.96403 -0.66,-19.92305 -0.875,-29.88608 -0.147,-6.93801 -1.65101,-13.55203 -3.70401,-20.14905 -1.65101,-5.29901 -5.19702,-8.12902 -10.414032,-8.42102 -10.285026,-0.58 -20.670052,-0.134 -30.458076,3.04301 -10.670027,3.46401 -11.677029,7.54502 -13.424034,20.25505 -1.586004,11.52003 -0.705001,23.10506 -0.862002,34.66209 -0.039,2.94101 -0.712002,3.80901 -3.732009,3.71701 -7.717019,-0.237 -15.447039,-0.168 -23.171058,-0.013 -2.466006,0.045 -3.142008,-0.625 -3.305008,-3.15101 -1.052003,-15.87804 -1.652004,-31.76908 -1.866005,-47.14012 0.260001,-23.66206 1.321003,-46.75412 4.02101,-69.72017 2.981008,-25.34007 7.393019,-50.390129 18.191046,-73.848187 2.597006,-5.646015 5.553013,-11.074028 8.849022,-16.340041 6.778017,-10.830027 15.663039,-16.207041 29.016072,-13.036033 10.920028,2.588007 21.469054,5.683014 31.164084,11.507029 12.02903,7.233018 17.37104,18.825047 20.76305,31.521079 6.44102,24.07106 10.64403,48.541123 12.90803,73.394183 2.67701,29.44807 3.65201,58.96415 4.72901,88.48622 0.183,4.97301 0.471,9.94903 0.93701,14.90404 0.268,2.87801 -0.92201,3.42901 -3.52501,3.39901 m 22.83105,-92.69223 c -0.24,7.51301 -3.51701,12.79503 -10.38402,16.27504 -2.66101,-33.30509 -5.16802,-66.48017 -13.85404,-99.320252 5.11702,1.996005 7.91602,5.298013 9.86803,9.837024 5.96001,13.837035 9.42602,28.288068 11.47803,43.142108 1.382,9.98003 3.216,19.92005 2.892,30.06608"
     id="path32"
     style="fill:#000000;stroke-width:1" /></g></svg>
